<mxfile host="65bd71144e">
    <diagram id="d02eLKMAQ-PI6jUeeWdX" name="Page-1">
        <mxGraphModel dx="1201" dy="1638" grid="1" gridSize="10" guides="1" tooltips="1" connect="1" arrows="1" fold="1" page="1" pageScale="1" pageWidth="850" pageHeight="1100" math="1" shadow="0">
            <root>
                <mxCell id="0"/>
                <mxCell id="1" parent="0"/>
                <mxCell id="63" value="&lt;span&gt;$$INT$$&lt;/span&gt;" style="rounded=0;whiteSpace=wrap;html=1;fontSize=30;fillColor=none;" vertex="1" parent="1">
                    <mxGeometry x="520" y="360" width="180" height="50" as="geometry"/>
                </mxCell>
                <mxCell id="42" value="" style="rounded=0;whiteSpace=wrap;html=1;fontSize=30;fillColor=none;" vertex="1" parent="1">
                    <mxGeometry x="1290" y="380" width="310" height="210" as="geometry"/>
                </mxCell>
                <mxCell id="26" value="$$CLASS$$" style="text;html=1;strokeColor=none;fillColor=none;align=center;verticalAlign=middle;whiteSpace=wrap;rounded=0;fontSize=30;" vertex="1" parent="1">
                    <mxGeometry x="970" y="576" width="230" height="40" as="geometry"/>
                </mxCell>
                <mxCell id="8" style="edgeStyle=orthogonalEdgeStyle;rounded=1;html=1;exitX=0.25;exitY=1;exitDx=0;exitDy=0;entryX=0;entryY=0.5;entryDx=0;entryDy=0;endArrow=open;endFill=0;endSize=15;" edge="1" parent="1" source="KjXer2ZAdIpNC8wcqedP-4" target="7">
                    <mxGeometry relative="1" as="geometry"/>
                </mxCell>
                <mxCell id="65" style="edgeStyle=orthogonalEdgeStyle;rounded=1;html=1;exitX=0.25;exitY=1;exitDx=0;exitDy=0;entryX=0;entryY=0.5;entryDx=0;entryDy=0;endArrow=open;endFill=0;endSize=15;" edge="1" parent="1" source="KjXer2ZAdIpNC8wcqedP-4" target="56">
                    <mxGeometry relative="1" as="geometry"/>
                </mxCell>
                <mxCell id="66" style="edgeStyle=orthogonalEdgeStyle;rounded=1;html=1;exitX=0.25;exitY=1;exitDx=0;exitDy=0;entryX=0;entryY=0.5;entryDx=0;entryDy=0;endArrow=open;endFill=0;endSize=15;" edge="1" parent="1" source="KjXer2ZAdIpNC8wcqedP-4" target="57">
                    <mxGeometry relative="1" as="geometry"/>
                </mxCell>
                <mxCell id="67" style="edgeStyle=orthogonalEdgeStyle;rounded=1;html=1;exitX=0.25;exitY=1;exitDx=0;exitDy=0;entryX=0;entryY=0.5;entryDx=0;entryDy=0;endArrow=open;endFill=0;endSize=15;" edge="1" parent="1" source="KjXer2ZAdIpNC8wcqedP-4" target="58">
                    <mxGeometry relative="1" as="geometry"/>
                </mxCell>
                <mxCell id="KjXer2ZAdIpNC8wcqedP-4" value="$$SymbolTable_{TOP}$$" style="rounded=0;whiteSpace=wrap;html=1;fontSize=30;fillColor=none;" parent="1" vertex="1">
                    <mxGeometry x="190" y="60" width="340" height="70" as="geometry"/>
                </mxCell>
                <mxCell id="20" style="edgeStyle=orthogonalEdgeStyle;rounded=1;html=1;exitX=1;exitY=0.5;exitDx=0;exitDy=0;entryX=0.5;entryY=0;entryDx=0;entryDy=0;endArrow=open;endFill=0;endSize=15;" edge="1" parent="1" source="7" target="18">
                    <mxGeometry relative="1" as="geometry"/>
                </mxCell>
                <mxCell id="7" value="$$\text{&quot;MyPackage&quot;}$$" style="rounded=0;whiteSpace=wrap;html=1;fontSize=15;fillColor=none;" vertex="1" parent="1">
                    <mxGeometry x="320" y="160" width="140" height="50" as="geometry"/>
                </mxCell>
                <mxCell id="22" style="edgeStyle=orthogonalEdgeStyle;rounded=1;html=1;exitX=0;exitY=0.25;exitDx=0;exitDy=0;entryX=1;entryY=0.5;entryDx=0;entryDy=0;endArrow=open;endFill=0;endSize=15;" edge="1" parent="1" source="16" target="KjXer2ZAdIpNC8wcqedP-4">
                    <mxGeometry relative="1" as="geometry"/>
                </mxCell>
                <mxCell id="24" style="edgeStyle=orthogonalEdgeStyle;rounded=1;html=1;exitX=0.25;exitY=1;exitDx=0;exitDy=0;entryX=0;entryY=0.5;entryDx=0;entryDy=0;endArrow=open;endFill=0;endSize=15;" edge="1" parent="1" source="16" target="23">
                    <mxGeometry relative="1" as="geometry"/>
                </mxCell>
                <mxCell id="35" style="edgeStyle=orthogonalEdgeStyle;rounded=1;html=1;exitX=0.25;exitY=1;exitDx=0;exitDy=0;entryX=0;entryY=0.5;entryDx=0;entryDy=0;endArrow=open;endFill=0;endSize=15;" edge="1" parent="1" source="16" target="33">
                    <mxGeometry relative="1" as="geometry"/>
                </mxCell>
                <mxCell id="37" style="edgeStyle=orthogonalEdgeStyle;rounded=1;html=1;exitX=0.25;exitY=1;exitDx=0;exitDy=0;entryX=0;entryY=0.5;entryDx=0;entryDy=0;endArrow=open;endFill=0;endSize=15;" edge="1" parent="1" source="16" target="36">
                    <mxGeometry relative="1" as="geometry"/>
                </mxCell>
                <mxCell id="16" value="$$SymbolTable_{\text{MyPackage}}$$" style="rounded=0;whiteSpace=wrap;html=1;fontSize=30;fillColor=none;" vertex="1" parent="1">
                    <mxGeometry x="850" y="120" width="340" height="70" as="geometry"/>
                </mxCell>
                <mxCell id="17" value="$$PACKAGE$$" style="text;html=1;strokeColor=none;fillColor=none;align=center;verticalAlign=middle;whiteSpace=wrap;rounded=0;fontSize=30;" vertex="1" parent="1">
                    <mxGeometry x="510" y="230" width="230" height="40" as="geometry"/>
                </mxCell>
                <mxCell id="18" value="" style="rounded=0;whiteSpace=wrap;html=1;fontSize=30;fillColor=none;" vertex="1" parent="1">
                    <mxGeometry x="490" y="210" width="270" height="125" as="geometry"/>
                </mxCell>
                <mxCell id="21" style="edgeStyle=orthogonalEdgeStyle;rounded=1;html=1;exitX=1;exitY=0.5;exitDx=0;exitDy=0;entryX=0;entryY=0.75;entryDx=0;entryDy=0;endArrow=open;endFill=0;endSize=15;" edge="1" parent="1" source="19" target="16">
                    <mxGeometry relative="1" as="geometry"/>
                </mxCell>
                <mxCell id="19" value="$$SYMBOLTABLE: \ \text{Inner}$$" style="rounded=0;whiteSpace=wrap;html=1;fontSize=15;fillColor=none;" vertex="1" parent="1">
                    <mxGeometry x="500" y="285" width="250" height="35" as="geometry"/>
                </mxCell>
                <mxCell id="29" style="edgeStyle=orthogonalEdgeStyle;rounded=1;html=1;exitX=1;exitY=0.5;exitDx=0;exitDy=0;endArrow=open;endFill=0;endSize=15;entryX=0.5;entryY=0;entryDx=0;entryDy=0;" edge="1" parent="1" source="23" target="25">
                    <mxGeometry relative="1" as="geometry">
                        <mxPoint x="1350" y="390" as="targetPoint"/>
                        <Array as="points">
                            <mxPoint x="1180" y="405"/>
                            <mxPoint x="1180" y="490"/>
                            <mxPoint x="1085" y="490"/>
                        </Array>
                    </mxGeometry>
                </mxCell>
                <mxCell id="23" value="$$\text{&quot;MyClass&quot;}$$" style="rounded=0;whiteSpace=wrap;html=1;fontSize=15;fillColor=none;" vertex="1" parent="1">
                    <mxGeometry x="1000" y="380" width="140" height="50" as="geometry"/>
                </mxCell>
                <mxCell id="25" value="" style="rounded=0;whiteSpace=wrap;html=1;fontSize=30;fillColor=none;" vertex="1" parent="1">
                    <mxGeometry x="950" y="560" width="270" height="160" as="geometry"/>
                </mxCell>
                <mxCell id="27" value="$$CLASS: \ \text{Super/Parent Class}$$" style="rounded=0;whiteSpace=wrap;html=1;fontSize=15;fillColor=none;" vertex="1" parent="1">
                    <mxGeometry x="960" y="625" width="250" height="35" as="geometry"/>
                </mxCell>
                <mxCell id="50" style="edgeStyle=orthogonalEdgeStyle;rounded=1;html=1;exitX=1;exitY=0.5;exitDx=0;exitDy=0;entryX=0;entryY=0.75;entryDx=0;entryDy=0;endArrow=open;endFill=0;endSize=15;" edge="1" parent="1" source="28" target="49">
                    <mxGeometry relative="1" as="geometry"/>
                </mxCell>
                <mxCell id="28" value="$$SYMBOL \ TABLE: \ \text{Inner}$$" style="rounded=0;whiteSpace=wrap;html=1;fontSize=15;fillColor=none;" vertex="1" parent="1">
                    <mxGeometry x="960" y="675" width="250" height="35" as="geometry"/>
                </mxCell>
                <mxCell id="71" style="edgeStyle=orthogonalEdgeStyle;rounded=1;jumpStyle=arc;jumpSize=12;html=1;exitX=1;exitY=0.5;exitDx=0;exitDy=0;entryX=1;entryY=0.5;entryDx=0;entryDy=0;endArrow=open;endFill=0;endSize=15;" edge="1" parent="1" source="33" target="63">
                    <mxGeometry relative="1" as="geometry">
                        <Array as="points">
                            <mxPoint x="1140" y="290"/>
                            <mxPoint x="860" y="290"/>
                            <mxPoint x="860" y="385"/>
                        </Array>
                    </mxGeometry>
                </mxCell>
                <mxCell id="33" value="$$\text{&quot;int_variable&quot;}$$" style="rounded=0;whiteSpace=wrap;html=1;fontSize=15;fillColor=none;" vertex="1" parent="1">
                    <mxGeometry x="1000" y="210" width="140" height="50" as="geometry"/>
                </mxCell>
                <mxCell id="43" style="edgeStyle=orthogonalEdgeStyle;rounded=1;html=1;exitX=1;exitY=0.5;exitDx=0;exitDy=0;entryX=0.5;entryY=0;entryDx=0;entryDy=0;endArrow=open;endFill=0;endSize=15;" edge="1" parent="1" source="36" target="42">
                    <mxGeometry relative="1" as="geometry"/>
                </mxCell>
                <mxCell id="36" value="$$\text{&quot;MyFunction&quot;}$$" style="rounded=0;whiteSpace=wrap;html=1;fontSize=15;fillColor=none;" vertex="1" parent="1">
                    <mxGeometry x="1000" y="310" width="140" height="50" as="geometry"/>
                </mxCell>
                <mxCell id="38" value="$$FUNCTION$$" style="text;html=1;strokeColor=none;fillColor=none;align=center;verticalAlign=middle;whiteSpace=wrap;rounded=0;fontSize=30;" vertex="1" parent="1">
                    <mxGeometry x="1310" y="400" width="270" height="40" as="geometry"/>
                </mxCell>
                <mxCell id="72" style="edgeStyle=orthogonalEdgeStyle;rounded=1;jumpStyle=arc;jumpSize=12;html=1;exitX=0;exitY=0.5;exitDx=0;exitDy=0;entryX=1;entryY=0.25;entryDx=0;entryDy=0;endArrow=open;endFill=0;endSize=15;" edge="1" parent="1" source="39" target="54">
                    <mxGeometry relative="1" as="geometry">
                        <Array as="points">
                            <mxPoint x="860" y="473"/>
                            <mxPoint x="860" y="438"/>
                            <mxPoint x="710" y="438"/>
                        </Array>
                    </mxGeometry>
                </mxCell>
                <mxCell id="39" value="$$DOUBLE: \ \text{return Type}$$" style="rounded=0;whiteSpace=wrap;html=1;fontSize=15;fillColor=none;" vertex="1" parent="1">
                    <mxGeometry x="1300" y="455" width="290" height="35" as="geometry"/>
                </mxCell>
                <mxCell id="53" style="edgeStyle=orthogonalEdgeStyle;rounded=1;html=1;exitX=0;exitY=0.5;exitDx=0;exitDy=0;entryX=0.75;entryY=0;entryDx=0;entryDy=0;endArrow=open;endFill=0;endSize=15;" edge="1" parent="1" source="40" target="25">
                    <mxGeometry relative="1" as="geometry"/>
                </mxCell>
                <mxCell id="73" style="edgeStyle=orthogonalEdgeStyle;rounded=1;jumpStyle=arc;jumpSize=12;html=1;exitX=0;exitY=0.5;exitDx=0;exitDy=0;endArrow=open;endFill=0;endSize=15;entryX=1;entryY=0.5;entryDx=0;entryDy=0;" edge="1" parent="1" source="40" target="64">
                    <mxGeometry relative="1" as="geometry">
                        <mxPoint x="790" y="519.9999999999998" as="targetPoint"/>
                    </mxGeometry>
                </mxCell>
                <mxCell id="40" value="$$[STRING, MYCLASS]: \ \text{Params}$$" style="rounded=0;whiteSpace=wrap;html=1;fontSize=15;fillColor=none;" vertex="1" parent="1">
                    <mxGeometry x="1300" y="497.5" width="290" height="35" as="geometry"/>
                </mxCell>
                <mxCell id="76" style="edgeStyle=orthogonalEdgeStyle;rounded=1;jumpStyle=arc;jumpSize=12;html=1;exitX=1;exitY=0.5;exitDx=0;exitDy=0;entryX=0;entryY=0.75;entryDx=0;entryDy=0;endArrow=open;endFill=0;endSize=15;" edge="1" parent="1" source="41" target="44">
                    <mxGeometry relative="1" as="geometry">
                        <Array as="points">
                            <mxPoint x="1630" y="558"/>
                            <mxPoint x="1630" y="300"/>
                            <mxPoint x="1410" y="300"/>
                            <mxPoint x="1410" y="235"/>
                        </Array>
                    </mxGeometry>
                </mxCell>
                <mxCell id="41" value="$$SYMBOLTABLE: \ \text{Inner}$$" style="rounded=0;whiteSpace=wrap;html=1;fontSize=15;fillColor=none;" vertex="1" parent="1">
                    <mxGeometry x="1300" y="540" width="290" height="35" as="geometry"/>
                </mxCell>
                <mxCell id="48" style="edgeStyle=orthogonalEdgeStyle;rounded=1;html=1;exitX=0.5;exitY=1;exitDx=0;exitDy=0;entryX=0.5;entryY=0;entryDx=0;entryDy=0;endArrow=open;endFill=0;endSize=15;" edge="1" parent="1" source="44" target="47">
                    <mxGeometry relative="1" as="geometry"/>
                </mxCell>
                <mxCell id="75" style="edgeStyle=orthogonalEdgeStyle;rounded=1;jumpStyle=arc;jumpSize=12;html=1;exitX=0;exitY=0.25;exitDx=0;exitDy=0;entryX=1;entryY=0.5;entryDx=0;entryDy=0;endArrow=open;endFill=0;endSize=15;" edge="1" parent="1" source="44" target="16">
                    <mxGeometry relative="1" as="geometry"/>
                </mxCell>
                <mxCell id="44" value="$$SymbolTable_{\text{MyFunction}}$$" style="rounded=0;whiteSpace=wrap;html=1;fontSize=30;fillColor=none;" vertex="1" parent="1">
                    <mxGeometry x="1490" y="182.5" width="340" height="70" as="geometry"/>
                </mxCell>
                <mxCell id="47" value="$$\dots$$" style="text;html=1;strokeColor=none;fillColor=none;align=center;verticalAlign=middle;whiteSpace=wrap;rounded=0;fontSize=30;" vertex="1" parent="1">
                    <mxGeometry x="1630" y="305" width="60" height="30" as="geometry"/>
                </mxCell>
                <mxCell id="77" style="edgeStyle=orthogonalEdgeStyle;rounded=1;jumpStyle=arc;jumpSize=12;html=1;exitX=0;exitY=0.25;exitDx=0;exitDy=0;entryX=1;entryY=0.75;entryDx=0;entryDy=0;endArrow=open;endFill=0;endSize=15;" edge="1" parent="1" source="49" target="16">
                    <mxGeometry relative="1" as="geometry">
                        <Array as="points">
                            <mxPoint x="1250" y="658"/>
                            <mxPoint x="1250" y="173"/>
                        </Array>
                    </mxGeometry>
                </mxCell>
                <mxCell id="82" style="edgeStyle=orthogonalEdgeStyle;rounded=1;jumpStyle=arc;jumpSize=12;html=1;exitX=0.75;exitY=1;exitDx=0;exitDy=0;entryX=1;entryY=0.5;entryDx=0;entryDy=0;endArrow=open;endFill=0;endSize=15;" edge="1" parent="1" source="49" target="78">
                    <mxGeometry relative="1" as="geometry"/>
                </mxCell>
                <mxCell id="83" style="edgeStyle=orthogonalEdgeStyle;rounded=1;jumpStyle=arc;jumpSize=12;html=1;exitX=0.75;exitY=1;exitDx=0;exitDy=0;entryX=1;entryY=0.5;entryDx=0;entryDy=0;endArrow=open;endFill=0;endSize=15;" edge="1" parent="1" source="49" target="79">
                    <mxGeometry relative="1" as="geometry"/>
                </mxCell>
                <mxCell id="49" value="$$SymbolTable_{\text{MyClass}}$$" style="rounded=0;whiteSpace=wrap;html=1;fontSize=30;fillColor=none;" vertex="1" parent="1">
                    <mxGeometry x="1350" y="640" width="340" height="70" as="geometry"/>
                </mxCell>
                <mxCell id="54" value="&lt;span&gt;$$DOUBLE$$&lt;/span&gt;" style="rounded=0;whiteSpace=wrap;html=1;fontSize=30;fillColor=none;" vertex="1" parent="1">
                    <mxGeometry x="520" y="425" width="190" height="50" as="geometry"/>
                </mxCell>
                <mxCell id="55" style="edgeStyle=orthogonalEdgeStyle;html=1;exitX=1;exitY=0.5;exitDx=0;exitDy=0;fontSize=15;endArrow=open;endFill=0;endSize=15;" edge="1" parent="1" source="56">
                    <mxGeometry relative="1" as="geometry">
                        <mxPoint x="520" y="385.1379310344828" as="targetPoint"/>
                    </mxGeometry>
                </mxCell>
                <mxCell id="56" value="$$\text{&quot;int&quot;}$$" style="rounded=0;whiteSpace=wrap;html=1;fontSize=15;fillColor=none;" vertex="1" parent="1">
                    <mxGeometry x="320" y="360" width="140" height="50" as="geometry"/>
                </mxCell>
                <mxCell id="57" value="$$\text{&quot;double&quot;}$$" style="rounded=0;whiteSpace=wrap;html=1;fontSize=15;fillColor=none;" vertex="1" parent="1">
                    <mxGeometry x="320" y="425" width="140" height="50" as="geometry"/>
                </mxCell>
                <mxCell id="58" value="$$\text{&quot;string&quot;}$$" style="rounded=0;whiteSpace=wrap;html=1;fontSize=15;fillColor=none;" vertex="1" parent="1">
                    <mxGeometry x="320" y="490" width="140" height="50" as="geometry"/>
                </mxCell>
                <mxCell id="59" style="edgeStyle=orthogonalEdgeStyle;html=1;fontSize=15;endArrow=open;endFill=0;endSize=15;" edge="1" parent="1">
                    <mxGeometry relative="1" as="geometry">
                        <mxPoint x="520" y="450.1379310344828" as="targetPoint"/>
                        <mxPoint x="460" y="450" as="sourcePoint"/>
                        <Array as="points">
                            <mxPoint x="510" y="450"/>
                            <mxPoint x="510" y="450"/>
                        </Array>
                    </mxGeometry>
                </mxCell>
                <mxCell id="60" style="edgeStyle=orthogonalEdgeStyle;html=1;fontSize=15;endArrow=open;endFill=0;endSize=15;" edge="1" parent="1">
                    <mxGeometry relative="1" as="geometry">
                        <mxPoint x="520" y="515.1379310344828" as="targetPoint"/>
                        <mxPoint x="460" y="515" as="sourcePoint"/>
                        <Array as="points">
                            <mxPoint x="510" y="515"/>
                            <mxPoint x="510" y="515"/>
                        </Array>
                    </mxGeometry>
                </mxCell>
                <mxCell id="64" value="$$STRING$$" style="rounded=0;whiteSpace=wrap;html=1;fontSize=30;fillColor=none;" vertex="1" parent="1">
                    <mxGeometry x="520" y="490" width="190" height="50" as="geometry"/>
                </mxCell>
                <mxCell id="87" style="edgeStyle=orthogonalEdgeStyle;rounded=1;jumpStyle=arc;jumpSize=12;html=1;exitX=0;exitY=0.5;exitDx=0;exitDy=0;entryX=0;entryY=0.25;entryDx=0;entryDy=0;endArrow=open;endFill=0;endSize=15;" edge="1" parent="1" source="78" target="25">
                    <mxGeometry relative="1" as="geometry">
                        <Array as="points">
                            <mxPoint x="850" y="755"/>
                            <mxPoint x="850" y="600"/>
                        </Array>
                    </mxGeometry>
                </mxCell>
                <mxCell id="78" value="$$\text{&quot;param_2&quot;}$$" style="rounded=0;whiteSpace=wrap;html=1;fontSize=15;fillColor=none;" vertex="1" parent="1">
                    <mxGeometry x="1420" y="730" width="140" height="50" as="geometry"/>
                </mxCell>
                <mxCell id="86" style="edgeStyle=orthogonalEdgeStyle;rounded=1;jumpStyle=arc;jumpSize=12;html=1;exitX=0;exitY=0.5;exitDx=0;exitDy=0;entryX=0.5;entryY=1;entryDx=0;entryDy=0;endArrow=open;endFill=0;endSize=15;" edge="1" parent="1" source="79" target="64">
                    <mxGeometry relative="1" as="geometry"/>
                </mxCell>
                <mxCell id="79" value="$$\text{&quot;param_1&quot;}$$" style="rounded=0;whiteSpace=wrap;html=1;fontSize=15;fillColor=none;" vertex="1" parent="1">
                    <mxGeometry x="1420" y="790" width="140" height="50" as="geometry"/>
                </mxCell>
            </root>
        </mxGraphModel>
    </diagram>
</mxfile>